<?xml version="1.0" encoding="utf-8"?>
<!-- Generator: Adobe Illustrator 24.2.1, SVG Export Plug-In . SVG Version: 6.00 Build 0)  -->
<svg version="1.1" id="Layer_1" xmlns="http://www.w3.org/2000/svg" xmlns:xlink="http://www.w3.org/1999/xlink" x="0px" y="0px"
	 viewBox="0 0 19.7 10.4" style="enable-background:new 0 0 19.7 10.4;" xml:space="preserve">
<style type="text/css">
	.st0{fill:#FFFFFF;}
</style>
<path class="st0" d="M36.5,45.6"/>
<g>
	<g>
		<path class="st0" d="M2.8,4.6c0-0.2,0.1-0.3,0.1-0.5C3,3.9,3.1,3.6,3.1,3.4c0.1-0.3,0.1-0.5,0.2-0.8c0-0.1,0.1-0.3,0.1-0.4
			c0,0,0,0,0,0c0.1,0,0.2,0,0.3,0c0,0,0,0,0.1,0C4,2.6,4.2,3.1,4.4,3.5c0,0.1,0.1,0.2,0.1,0.3c0.1-0.1,0.1-0.2,0.2-0.4
			C4.9,3,5,2.6,5.2,2.2c0.1-0.1,0.1-0.1,0.2-0.1c0.1,0,0.1,0,0.2,0c0,0,0.1,0,0.1,0.1c0.1,0.4,0.2,0.9,0.3,1.3C6,3.9,6,4.3,6.1,4.6
			C6,4.6,5.8,4.7,5.7,4.7C5.6,4.1,5.5,3.5,5.3,2.9c0,0.1-0.1,0.2-0.1,0.3c-0.1,0.3-0.3,0.6-0.4,1c0,0.1-0.1,0.2-0.1,0.3
			c0,0,0,0.1-0.1,0c-0.1,0-0.2,0-0.3,0c0,0,0,0-0.1,0C4.1,4,4,3.7,3.8,3.3C3.8,3.2,3.7,3,3.6,2.9C3.5,3.5,3.4,4.1,3.3,4.7
			C3.1,4.7,3,4.6,2.8,4.6C2.8,4.6,2.8,4.6,2.8,4.6z"/>
		<path class="st0" d="M16.7,6.8c0,0.1-0.1,0.3-0.2,0.4c-0.1,0.1-0.3,0.1-0.4,0.2c-0.2,0-0.4,0-0.6,0c0,0-0.1,0-0.1,0
			c0-0.1,0-0.3,0-0.4c0.2,0,0.4,0,0.6,0c0.1,0,0.1,0,0.2-0.1c0.1-0.1,0.1-0.1,0-0.2c0,0-0.1-0.1-0.1-0.1c-0.1-0.1-0.2-0.1-0.3-0.2
			c-0.3-0.2-0.3-0.6-0.1-0.8c0.1-0.1,0.2-0.2,0.4-0.2c0.2,0,0.4,0,0.6,0c0,0.1,0,0.2,0,0.4c-0.1,0-0.1,0-0.2,0c-0.1,0-0.2,0-0.3,0
			c0,0-0.1,0-0.1,0.1c-0.1,0.1-0.1,0.1,0,0.2c0.1,0.1,0.3,0.1,0.4,0.2c0.2,0.1,0.3,0.2,0.3,0.4c0,0,0,0.1,0,0.1
			C16.7,6.8,16.7,6.8,16.7,6.8z"/>
		<path class="st0" d="M12,7c0,0.1,0,0.3,0,0.4c-0.6,0-1.2,0-1.8,0c0,0.3,0,0.5,0,0.8c-0.1,0-0.3,0-0.4,0c0-0.3,0-0.6,0-0.8
			c-0.1,0-0.2,0-0.3,0c0,0,0,0,0,0c-0.2,0-0.4,0-0.6,0c0,0-0.1,0-0.1,0c0-0.1-0.1-0.1-0.1-0.2c0,0,0,0,0-0.1C8.8,7,8.9,6.9,8.9,6.8
			c0.2-0.2,0.4-0.4,0.6-0.6C9.6,6,9.8,5.8,9.9,5.7c0,0,0,0,0,0c0.1,0,0.2,0.1,0.2,0.1c0,0,0,0,0,0.1c0,0.3,0,0.7,0,1c0,0,0,0,0,0.1
			c0.1,0,0.1,0,0.2,0c0-0.7,0-1.4,0-2.1c0.1,0,0.3,0,0.4,0c0,0.7,0,1.4,0,2.1C11.3,7,11.6,7,12,7z M9.8,6.3C9.6,6.6,9.4,6.8,9.2,7
			c0.2,0,0.4,0,0.6,0C9.8,6.8,9.8,6.6,9.8,6.3z"/>
		<path class="st0" d="M7.2,2.7c0.5,0,0.9,0.4,0.9,0.8c0,0.1,0,0.2,0,0.3c0,0.4-0.2,0.8-0.6,0.9C7.2,4.8,6.9,4.7,6.6,4.5
			C6.4,4.3,6.3,4.1,6.3,3.8c0-0.3,0-0.6,0.3-0.9c0.1-0.1,0.3-0.2,0.5-0.3C7.1,2.7,7.2,2.7,7.2,2.7z M6.7,3.7c0,0.2,0,0.3,0.1,0.4
			c0.1,0.2,0.3,0.3,0.5,0.2C7.5,4.2,7.6,4.1,7.7,4c0.1-0.2,0-0.4-0.1-0.7C7.5,3,7.1,3,6.9,3.2C6.8,3.3,6.7,3.5,6.7,3.7z"/>
		<path class="st0" d="M11.4,3.7c-0.2,0-0.4,0-0.6,0c-0.2,0-0.4,0-0.6,0c0,0.1,0,0.2,0.1,0.2c0.1,0.2,0.3,0.3,0.5,0.3
			c0.1,0,0.2,0,0.3,0c0.1,0,0.1,0,0.2,0c0,0.1,0,0.1,0,0.2c0,0,0,0.1,0,0.1c0,0,0,0,0,0c-0.1,0-0.3,0-0.4,0c-0.3,0-0.5-0.1-0.8-0.3
			C9.8,4.2,9.7,4,9.7,3.7c0-0.3,0.1-0.6,0.3-0.8c0.1-0.1,0.2-0.2,0.4-0.2c0.2,0,0.3,0,0.5,0c0.2,0.1,0.3,0.2,0.4,0.4
			C11.4,3.3,11.4,3.5,11.4,3.7z M10.9,3.4c0-0.2-0.2-0.3-0.4-0.3c-0.2,0-0.4,0.2-0.4,0.3C10.4,3.4,10.7,3.4,10.9,3.4z"/>
		<path class="st0" d="M13.8,6.4c-0.4,0-0.8,0-1.3,0c0,0.1,0,0.2,0.1,0.2C12.7,6.9,12.9,7,13.1,7c0.2,0,0.4,0,0.6,0
			c0,0.1,0,0.1,0,0.2c0,0,0,0.1,0,0.1c0,0,0,0-0.1,0.1c-0.1,0-0.3,0-0.4,0c-0.3,0-0.6-0.1-0.8-0.3c-0.1-0.1-0.2-0.3-0.2-0.5
			c0-0.2,0-0.4,0.1-0.7c0.2-0.5,0.7-0.6,1.1-0.5c0.2,0.1,0.4,0.3,0.4,0.5C13.8,6.1,13.8,6.3,13.8,6.4z M12.6,6.1c0.3,0,0.5,0,0.8,0
			c0-0.2-0.2-0.3-0.3-0.3C12.8,5.8,12.6,5.9,12.6,6.1z"/>
		<path class="st0" d="M14,7.4c0-0.1,0-0.3,0-0.4c0.2,0,0.4,0,0.5,0c0.1,0,0.1,0,0.2-0.1c0.1-0.1,0.1-0.2,0-0.3
			c-0.1,0-0.2-0.1-0.3-0.2c-0.1,0-0.2-0.1-0.3-0.2c-0.3-0.2-0.2-0.6,0.1-0.8c0.1-0.1,0.3-0.1,0.4-0.1c0.2,0,0.3,0,0.5,0
			c0,0.1,0,0.2,0,0.4c-0.1,0-0.1,0-0.2,0c-0.1,0-0.2,0-0.4,0c0,0-0.1,0-0.1,0.1c0,0,0,0.1,0,0.2c0.1,0.1,0.2,0.1,0.3,0.2
			c0.1,0.1,0.2,0.1,0.3,0.2c0.3,0.2,0.2,0.6-0.1,0.8c-0.1,0.1-0.3,0.1-0.4,0.2C14.4,7.4,14.2,7.4,14,7.4z"/>
		<path class="st0" d="M8.9,4.7c-0.1,0-0.3,0-0.4,0c0-0.6,0-1.3,0-1.9c0.1,0,0.3,0,0.4,0c0,0.1,0,0.1,0,0.2c0.2-0.1,0.4-0.2,0.7-0.3
			c0,0.1,0.1,0.3,0.1,0.4C9.5,3.1,9.4,3.2,9.2,3.2C9.1,3.3,9,3.3,8.9,3.3c0,0,0,0,0,0.1c0,0.4,0,0.7,0,1.1C8.9,4.6,8.9,4.6,8.9,4.7z
			"/>
		<path class="st0" d="M10.9,3.4c-0.3,0-0.5,0-0.8,0"/>
		<path class="st0" d="M13.4,6.1c-0.3,0-0.5,0-0.8,0"/>
	</g>
</g>
</svg>
